{"title":"|RDY| Step Horny Mom Playing With Son |RDY|","uid":7364676,"size":132987883,"categoryP":"porn","categoryS":"movie_clips","magnet":"?xt=urn:btih:57bbcbb33c72192590574c550b7090965156c350&amp;dn=%7CRDY%7C+Step+Horny+Mom+Playing+With+Son+%7CRDY%7C&amp;tr=udp%3A%2F%2Ftracker.openbittorrent.com%3A80&amp;tr=udp%3A%2F%2Fopen.demonii.com%3A1337&amp;tr=udp%3A%2F%2Ftracker.coppersurfer.tk%3A6969&amp;tr=udp%3A%2F%2Fexodus.desync.com%3A6969","seeders":0,"leechers":1,"uploader":"soulless123","files":1,"time":1340066608,"description":"Screens\n &lt;a href=&quot;\nhttp://bayimg.com/PApgLAadD&quot; rel=&quot;nofollow&quot; target=&quot;_NEW&quot;&gt;\nhttp://bayimg.com/PApgLAadD&lt;/a&gt;\n\nSeeding Time 24/7\n\nDon't Forget To Say Thanks If You Like My Post\n\n\n\n-=Media Info=-\n\n\nFormat : Flash Video\nFile size : 127 MiB\nDuration : 37mn 4s\nOverall bit rate : 478 Kbps\nTagged date : UTC 2010-12-08 04:25:12\nTagging application : inlet media FLVTool2 v1.0.6 - http://www.inlet-media.de/flvtool2\n\nVideo\nFormat : VP6\nCodec ID : 4\nDuration : 37mn 4s\nBit rate : 406 Kbps\nWidth : 528 pixels\nHeight : 400 pixels\nDisplay aspect ratio : 4:3\nFrame rate mode : Constant\nFrame rate : 25.000 fps\nBit depth : 8 bits\nBits/(Pixel*Frame) : 0.077\nStream size : 108 MiB (85%)\n\nAudio\nFormat : MPEG Audio\nFormat version : Version 2\nFormat profile : Layer 3\nMode : Joint stereo\nMode extension : MS Stereo\nCodec ID : 2\nCodec ID/Hint : MP3\nDuration : 37mn 3s\nBit rate mode : Constant\nBit rate : 64.0 Kbps\nChannel(s) : 2 channels\nSampling rate : 22.05 KHz\nCompression mode : Lossy\nStream size : 17.9 MiB (14%)","torrent":{"xt":"urn:btih:57bbcbb33c72192590574c550b7090965156c350","amp;dn":"%7CRDY%7C+Step+Horny+Mom+Playing+With+Son+%7CRDY%7C","amp;tr":["udp%3A%2F%2Ftracker.openbittorrent.com%3A80","udp%3A%2F%2Fopen.demonii.com%3A1337","udp%3A%2F%2Ftracker.coppersurfer.tk%3A6969","udp%3A%2F%2Fexodus.desync.com%3A6969"],"infoHash":"57bbcbb33c72192590574c550b7090965156c350","infoHashBuffer":{"type":"Buffer","data":[87,187,203,179,60,114,25,37,144,87,76,85,11,112,144,150,81,86,195,80]},"announce":[],"urlList":[]}}